<?xml version="1.0" encoding="iso-8859-1"?>
<!-- Generator: Adobe Illustrator 19.0.0, SVG Export Plug-In . SVG Version: 6.00 Build 0)  -->
<svg version="1.1" id="Capa_1" xmlns="http://www.w3.org/2000/svg" xmlns:xlink="http://www.w3.org/1999/xlink" x="0px" y="0px"
	 viewBox="0 0 512 512" style="enable-background:new 0 0 512 512;" xml:space="preserve">
<path style="fill:#303C42;" d="M256,512c-3.302,0-6.417-1.531-8.438-4.146L66.229,273.188c-2.49-3.219-2.927-7.573-1.135-11.219
	c1.792-3.656,5.5-5.969,9.573-5.969h96V10.667C170.667,4.771,175.438,0,181.333,0h149.333c5.896,0,10.667,4.771,10.667,10.667V256
	h96c4.073,0,7.781,2.313,9.573,5.969c1.792,3.646,1.354,8-1.135,11.219L264.438,507.854C262.417,510.469,259.302,512,256,512z"/>
<path style="fill:#1E88E5;" d="M96.385,277.333L256,483.885l159.615-206.552h-84.948c-5.896,0-10.667-4.771-10.667-10.667V21.333
	H192v245.333c0,5.896-4.771,10.667-10.667,10.667H96.385z"/>
<linearGradient id="SVGID_1_" gradientUnits="userSpaceOnUse" x1="-42.1235" y1="638.7607" x2="-26.7641" y2="631.5985" gradientTransform="matrix(21.3333 0 0 -21.3333 996.3334 13791.667)">
	<stop  offset="0" style="stop-color:#FFFFFF;stop-opacity:0.2"/>
	<stop  offset="1" style="stop-color:#FFFFFF;stop-opacity:0"/>
</linearGradient>
<path style="fill:url(#SVGID_1_);" d="M256,512c-3.302,0-6.417-1.531-8.438-4.146L66.229,273.188
	c-2.49-3.219-2.927-7.573-1.135-11.219c1.792-3.656,5.5-5.969,9.573-5.969h96V10.667C170.667,4.771,175.438,0,181.333,0h149.333
	c5.896,0,10.667,4.771,10.667,10.667V256h96c4.073,0,7.781,2.313,9.573,5.969c1.792,3.646,1.354,8-1.135,11.219L264.438,507.854
	C262.417,510.469,259.302,512,256,512z"/>
<g>
</g>
<g>
</g>
<g>
</g>
<g>
</g>
<g>
</g>
<g>
</g>
<g>
</g>
<g>
</g>
<g>
</g>
<g>
</g>
<g>
</g>
<g>
</g>
<g>
</g>
<g>
</g>
<g>
</g>
</svg>
